<?xml version="1.0"?>
<svg xmlns="http://www.w3.org/2000/svg" id="Layer_1_1_" enable-background="new 0 0 64 64" height="512px" viewBox="0 0 64 64" width="512px"><path d="m16 16c6 0 0-10 0-10s-6 10 0 10z" fill="#EEC344"/><path d="m16 24c0-5.523-4.477-10-10-10 0 5.523 4.477 10 10 10z" fill="#EEC344"/><path d="m26 14c-5.523 0-10 4.477-10 10 5.523 0 10-4.477 10-10z" fill="#EEC344"/><path d="m6 22c0 5.523 4.477 10 10 10 0-5.523-4.477-10-10-10z" fill="#EEC344"/><path d="m16 32c5.523 0 10-4.477 10-10-5.523 0-10 4.477-10 10z" fill="#EEC344"/><path d="m16 40c0-5.523-4.477-10-10-10 0 5.523 4.477 10 10 10z" fill="#EEC344"/><path d="m26 30c-5.523 0-10 4.477-10 10 5.523 0 10-4.477 10-10z" fill="#EEC344"/><path d="m6 38c0 5.523 4.477 10 10 10 0-5.523-4.477-10-10-10z" fill="#EEC344"/><path d="m26 38c-5.523 0-10 4.477-10 10 5.523 0 10-4.477 10-10z" fill="#EEC344"/><path d="m48 16c6 0 0-10 0-10s-6 10 0 10z" fill="#EEC344"/><path d="m38 14c0 5.523 4.477 10 10 10 0-5.523-4.477-10-10-10z" fill="#EEC344"/><path d="m48 24c5.523 0 10-4.477 10-10-5.523 0-10 4.477-10 10z" fill="#EEC344"/><path d="m38 22c0 5.523 4.477 10 10 10 0-5.523-4.477-10-10-10z" fill="#EEC344"/><path d="m48 32c5.523 0 10-4.477 10-10-5.523 0-10 4.477-10 10z" fill="#EEC344"/><path d="m38 30c0 5.523 4.477 10 10 10 0-5.523-4.477-10-10-10z" fill="#EEC344"/><path d="m48 40c5.523 0 10-4.477 10-10-5.523 0-10 4.477-10 10z" fill="#EEC344"/><path d="m38 38c0 5.523 4.477 10 10 10 0-5.523-4.477-10-10-10z" fill="#EEC344"/><path d="m48 48c5.523 0 10-4.477 10-10-5.523 0-10 4.477-10 10z" fill="#EEC344"/><path d="m15 62h2v-14h-1-1z" fill="#EEC344"/><path d="m17 5v-2c0-.552-.448-1-1-1-.552 0-1 .448-1 1v2c0 .552.448 1 1 1 .552 0 1-.448 1-1z" fill="#EEC344"/><path d="m27.414 14 1.586-1.586c.391-.391.391-1.024 0-1.414-.391-.391-1.024-.391-1.414 0l-1.586 1.586c-.391.39-.391 1.024 0 1.414s1.024.39 1.414 0z" fill="#EEC344"/><path d="m6 12.586-1.586-1.586c-.39-.391-1.023-.391-1.414 0-.391.39-.391 1.024 0 1.414l1.586 1.586c.39.39 1.023.39 1.414 0 .391-.391.391-1.024 0-1.414z" fill="#EEC344"/><path d="m29 19c-.391-.391-1.024-.391-1.414 0l-1.586 1.586c-.391.39-.391 1.024 0 1.414s1.024.39 1.414 0l1.586-1.586c.391-.39.391-1.024 0-1.414z" fill="#EEC344"/><path d="m6 20.586-1.586-1.586c-.39-.391-1.023-.391-1.414 0-.391.39-.391 1.024 0 1.414l1.586 1.586c.39.39 1.023.39 1.414 0 .391-.391.391-1.024 0-1.414z" fill="#EEC344"/><path d="m27.414 30 1.586-1.586c.391-.391.391-1.024 0-1.414-.391-.391-1.024-.391-1.414 0l-1.586 1.586c-.391.39-.391 1.024 0 1.414s1.024.39 1.414 0z" fill="#EEC344"/><path d="m6 28.586-1.586-1.586c-.39-.391-1.023-.391-1.414 0-.391.39-.391 1.024 0 1.414l1.586 1.586c.39.39 1.023.39 1.414 0 .391-.391.391-1.024 0-1.414z" fill="#EEC344"/><path d="m27.414 38 1.586-1.586c.391-.391.391-1.024 0-1.414-.391-.391-1.024-.391-1.414 0l-1.586 1.586c-.391.39-.391 1.024 0 1.414s1.024.39 1.414 0z" fill="#EEC344"/><path d="m6 36.586-1.586-1.586c-.39-.391-1.023-.391-1.414 0-.391.39-.391 1.024 0 1.414l1.586 1.586c.39.39 1.023.39 1.414 0 .391-.391.391-1.024 0-1.414z" fill="#EEC344"/><path d="m47 62h2v-14h-1-1z" fill="#EEC344"/><path d="m49 5v-2c0-.552-.448-1-1-1-.552 0-1 .448-1 1v2c0 .552.448 1 1 1 .552 0 1-.448 1-1z" fill="#EEC344"/><path d="m59.586 11-1.586 1.586c-.391.39-.391 1.024 0 1.414s1.024.39 1.414 0l1.586-1.586c.391-.391.391-1.024 0-1.414-.391-.391-1.024-.391-1.414 0z" fill="#EEC344"/><path d="m38 12.586-1.586-1.586c-.391-.391-1.024-.391-1.414 0-.391.39-.391 1.024 0 1.414l1.586 1.586c.391.39 1.024.39 1.414 0 .391-.391.391-1.024 0-1.414z" fill="#EEC344"/><path d="m59.586 19-1.586 1.586c-.391.39-.391 1.024 0 1.414s1.024.39 1.414 0l1.586-1.586c.391-.391.391-1.024 0-1.414-.391-.391-1.024-.391-1.414 0z" fill="#EEC344"/><path d="m38 20.586-1.586-1.586c-.391-.391-1.024-.391-1.414 0-.391.39-.391 1.024 0 1.414l1.586 1.586c.391.39 1.024.39 1.414 0 .391-.391.391-1.024 0-1.414z" fill="#EEC344"/><path d="m59.586 27-1.586 1.586c-.391.39-.391 1.024 0 1.414s1.024.39 1.414 0l1.586-1.586c.391-.391.391-1.024 0-1.414-.391-.391-1.024-.391-1.414 0z" fill="#EEC344"/><path d="m38 28.586-1.586-1.586c-.391-.391-1.024-.391-1.414 0-.391.39-.391 1.024 0 1.414l1.586 1.586c.391.39 1.024.39 1.414 0 .391-.391.391-1.024 0-1.414z" fill="#EEC344"/><path d="m59.586 35-1.586 1.586c-.391.39-.391 1.024 0 1.414s1.024.39 1.414 0l1.586-1.586c.391-.391.391-1.024 0-1.414-.391-.391-1.024-.391-1.414 0z" fill="#EEC344"/><path d="m38 36.586-1.586-1.586c-.391-.391-1.024-.391-1.414 0-.391.39-.391 1.024 0 1.414l1.586 1.586c.391.39 1.024.39 1.414 0 .391-.391.391-1.024 0-1.414z" fill="#EEC344"/></svg>
